<svg version="1.0" xmlns="http://www.w3.org/2000/svg" viewBox="0 0 500 550"><path d="M230.5 1.9c-15.2 4.2-26.1 10.7-37.3 22.6-6.1 6.4-9 10.6-12.5 17.7-6.1 12.2-8 20.5-8.2 35l-.1 11.6-9.5 6.4c-13.1 8.8-32.6 28.3-41.2 41.3-11.6 17.6-19.4 36-23.8 56.4-1.7 8-2.2 15-2.9 42.1-.8 35.7-2 44.6-8.1 61.4-7.1 19.7-16.2 33.9-31.9 49.7-8.9 9-14.4 13.6-24.6 20.2-14.8 9.7-20.2 15.1-25 25.2-13.4 27.9.8 60.8 30.5 70.7 6.4 2.2 8.1 2.2 63.4 2.6l56.7.3v2.7c0 5.3 4.1 19.7 8 27.9 12.5 26.8 37.7 46.8 66.2 52.7 10.1 2.1 29.5 2.1 39.6 0 28.4-5.9 53.7-25.9 66.2-52.7 3.9-8.2 8-22.6 8-27.9v-2.7l56.8-.3c55.2-.4 56.9-.4 63.3-2.6 29.7-9.9 43.8-42.7 30.5-70.7-4.8-10-10.3-15.6-24.5-25-6.9-4.5-15.4-10.7-18.9-13.9-22.6-20.3-37.1-45.4-43.3-74.8-1.8-8.5-2.3-15.5-2.9-40.3-.8-29.9-1.8-39.1-5.6-52.5-10.8-37.9-33.3-69.3-64.9-90.4l-7-4.7V77.7c-.2-15-2-23-8.2-35.5-8.6-17.4-25.1-31.8-44.1-38.5C267.3.9 265.2.6 252 .3c-11.8-.2-15.8.1-21.5 1.6z" fill="#FFF"/></svg>